<?xml version="1.0" encoding="UTF-8"?>
<svg xmlns="http://www.w3.org/2000/svg" height="70px" width="70px">
 <g>
    <circle r="32" style="fill:#ffffff;" cx="35" cy="35" />
    <path style="fill:#159677;stroke:#159677;stroke-width:0.2;stroke-linejoin:round;stroke-opacity:0.6;stroke-linecap:round" d="M 35,70 C 16,70 0,54 0,35 0,16 16,0 35,0 54,0 70,16 70,35 70,54 54,70 35,70 Z M 66,35 C 66,18 52,4 35,4 18,4 4,18 4,35 4,38 4.12,38.9 5.55,43.4 5.69,43.4 5.88,42 6.02,40.8 6.3,36.7 7.42,29.8 8.35,26.7 8.77,25 9.47,23.2 9.92,22.2 10.4,21.2 11.2,19.9 11.9,19.3 12.5,18.6 13.6,17.7 14.4,17.4 15.3,17 17.2,16.5 19.4,16.2 24.3,15.5 27,14.9 29.7,14 32.2,13.3 32.2,13.2 34.3,13.7 35.4,14 37.3,14.6 38.6,15.2 39.7,15.7 41.8,16.8 43,17.6 44.1,18.5 45.2,19.3 45.7,19.5 46.1,19.8 46.7,20.2 47.1,20.2 48.1,20.3 48.3,20.7 48.5,20.9 48.8,21.2 49,21.8 49,22.2 49,22.7 49,23.7 49.5,24.4 50.4,25.5 51,26.7 52.3,31.8 52.5,32.6 53.1,33.8 54.1,35.3 55.1,36.8 56.9,38.1 57.4,38.5 58.3,39.1 60,40 61.1,40.3 L 63.5,41.4 61.6,41.2 C 60.7,41 59.3,40.8 58.3,40.3 57.4,40 56.9,40 56.9,40.1 56.9,40.3 57.4,41.4 57.9,42.6 58.3,43.6 59.2,44.9 59.3,45.4 59.3,45.5 58.5,45.2 58.3,44.9 57.9,44.3 57.6,44.1 57.1,43 56.5,41.8 55.5,40.1 54.1,38.5 52.7,36.7 50.9,34.6 50.4,33.6 50,32.9 49.2,31.3 49,30 48.8,28.8 48.3,27.2 48.1,26.9 47.8,26.5 47.3,25.9 47.1,26 L 45.5,26.7 C 44.5,26.9 42,27.6 40.4,28.2 38.9,28.5 37,29.2 36.3,29.6 34.5,30.4 31.8,32.6 30.2,34.2 28.6,36.1 27.4,38.1 27.7,39.3 27.9,39.7 28.4,40.8 28.8,41.4 29.3,42 30.4,43.6 31.3,45.2 32.2,46.7 33.6,48.7 34.5,49.7 35.4,50.8 37,52.9 38.4,53.6 39.6,54.7 42.5,56.8 44.3,58.9 46.4,61 48.1,62.4 48.5,62.4 52.1,61.9 66,52 66,35 Z M 36.1,21.5 C 36.6,21.4 37,21 37,20.8 37,20.5 36.8,20.3 36.6,20.2 35.9,19.9 34.5,19.9 34.1,20.2 33.8,20.3 33.6,20.5 33.6,20.8 33.6,21.3 34.3,21.8 35,21.8 35.2,21.8 35.9,21.7 36.1,21.5 Z" />
  </g>
</svg>
