<?xml version="1.0" encoding="UTF-8"?>
<svg xmlns="http://www.w3.org/2000/svg" height="70px" width="70px">
 <g>
  <path d="M 66.6,45.4 C 68.7,41.2 71.6,32.5 68.9,25.2 C 68.9,25.2 68.9,25.2 68.9,25.5 L 68.9,25.5 C 68.9,25.5 68.4,26.9 67.8,29.2 C 67.8,28.9 67.8,28.6 67.8,28.5 C 68.1,25.8 67.8,22.8 67.5,20 C 66.6,15.5 63.5,11.7 61.6,10.5 C 61.6,10.5 62,10.5 62,10.8 C 61.6,10.5 61.6,10.5 61.6,10.5 C 61.6,10.5 61.6,10.8 62,11.7 C 59.9,8.49 57.3,7.31 57.3,7.31 C 57.3,7.31 57.3,7.91 57.6,8.77 C 51.8,3.22 43.9,0 35.5,0 C 26.8,0 18.9,3.51 12.9,9.07 C 13.1,9.37 13.3,9.95 14,10.5 C 14,10.5 16.3,10.3 18.9,10.3 C 23.9,6.73 29.4,4.97 35.5,4.97 C 43.1,4.97 50.3,8.19 55.8,13.8 C 55.3,13.5 55.6,13.8 55.8,14.1 C 54.1,12.9 52.4,11.7 51,11.7 C 53.9,14.1 58.5,19.7 57.9,29.9 C 57,28.1 56.2,26.9 55.3,26.1 C 56.4,36.3 55.3,38.4 54.7,41 C 54.7,39.8 54.1,39 53.9,38.4 C 53.9,38.4 53.9,41.5 51.8,45.9 C 50.3,49.5 48.7,50.3 48,50.3 C 47.4,50.3 47.7,49.7 47.7,49.2 C 47.7,49.2 46.6,49.7 45.7,50.9 C 44.8,52 43.9,53.3 43.3,52.7 C 43.7,52.4 43.9,51.7 44.3,51.6 C 43.9,51.7 42.8,52.7 40.8,53 C 39.9,53 36,53.9 31.2,51.3 C 32,51.3 32.9,50.9 33.7,51.6 C 32.9,50.6 30.8,50.6 29.4,50.3 C 27.9,49.2 26.2,47.5 25.4,46.2 C 29.1,47.2 33.5,46.5 35.8,44.8 C 38.1,43.1 39.6,41.8 41,42.1 C 42.2,42.5 43.1,41 42.2,39.8 C 41.4,38.7 38.7,36.9 35.5,37.7 C 33.1,38.4 30.2,41 25.8,38.4 C 22.1,36 22.1,34.3 22.1,33 C 22.1,32.2 22.7,31 23.5,30.7 C 24.1,31 24.4,31 24.4,31 C 24.4,31 24.1,30.7 24.1,30.5 L 24.1,30.5 C 24.4,30.5 25.4,31 25.8,31 C 26.4,31.3 26.8,31.6 26.8,31.6 C 26.8,31.6 26.8,31.6 26.8,31.3 C 26.8,31.3 26.4,30.7 25.8,30.5 L 25.8,30.5 C 26.2,30.5 26.4,30.7 27.1,31 C 27.1,30.5 27.3,29.9 27.3,28.9 C 27.3,28.5 27.3,28.1 27.1,27.8 C 26.8,27.5 27.1,27.5 27.3,27.8 C 27.3,27.5 27.3,27.5 27.1,27.2 L 27.1,27.2 C 27.1,27.2 27.1,27.2 27.1,26.9 C 27.7,26.1 32.3,23.4 32.6,23.1 C 33.1,22.8 33.5,22.2 33.7,21.7 C 34.3,21.4 34.6,20.1 34.6,19.3 C 34.6,19 34.1,18.4 33.5,18.4 C 33.1,18.4 32.3,18.1 31.7,18.4 L 31.7,18.4 C 30.8,18.4 29.7,18.4 28.3,18.4 C 26.8,18.4 25.8,17.6 25.4,16.7 C 25.4,16.4 25,16.4 25,16 C 25,15.9 24.7,15.5 24.7,15.5 C 25.4,13.2 26.8,11.1 28.8,9.37 C 28.8,9.37 28.3,9.37 28.5,9.37 C 28.5,9.37 29.4,8.77 29.7,8.77 C 30,8.77 28.8,8.49 27.9,8.49 C 26.4,9.07 26.2,9.07 25.6,9.37 C 25.8,9.07 26.4,8.77 26.2,8.77 C 25.4,9.07 24.1,9.95 22.9,10.5 L 22.9,10.3 C 22.4,10.5 21.2,11.4 21,12.3 C 21,12 21,12 21,12 C 20.6,12 20.4,12.6 20,12.9 L 20,12.9 C 16.9,12 14.3,12.3 11.9,12.9 C 11.4,12.6 10.2,11.4 9.34,9.95 C 9.34,9.95 9.34,10.3 8.98,10.3 C 8.74,9.07 8.13,7.61 8.13,6.45 L 8.13,6.15 C 8.13,6.15 7.89,6.45 7.28,7.03 C 7.04,7.61 6.67,7.91 6.67,8.49 C 6.67,8.77 6.43,9.07 6.43,9.07 L 6.43,8.49 C 6.43,8.77 6.07,9.07 5.82,9.37 C 5.82,9.95 5.82,10.3 5.58,10.5 L 5.58,10.5 C 5.58,10.5 5.58,9.95 5.58,10.3 C 5.22,10.8 4.97,11.7 4.97,12.6 C 4.61,13.5 4.61,14.1 4.61,14.9 C 4.61,15.9 4.61,17 4.61,18.4 C 4.61,18.7 4.61,18.7 4.61,19 C 3.76,20.1 3.15,21.1 2.91,21.7 C 1.7,23.7 0.849,26.9 0,31.9 C 0,31.9 0.607,30.2 1.7,28.1 L 1.7,28.1 C 0.849,30.7 0.243,34.9 0.607,41 C 0.607,40.7 0.849,39.2 1.21,37.1 C 1.46,41.2 2.67,46.2 5.58,51.7 C 7.89,56 10.4,58.8 13.3,61.2 C 14,61.8 14.6,62.1 15.2,62.6 C 18.9,65.6 24.7,68.7 29.7,69.7 C 27.9,69 26.8,68.2 26.8,68.2 C 26.8,68.2 32.6,70.3 37,70 C 35.5,69.7 35.2,69 35.2,69 C 35.2,69 47.4,69.7 53.9,64.6 C 55.3,63.5 56.2,62.4 56.4,61.2 C 58.2,60.1 60.2,58.8 62.2,56.4 C 65.8,53 66,50.3 66.4,47.6 L 66.4,48 C 67,46.9 67,45.9 66.6,45.4 Z" style="fill:#f27a00"/>
 </g>
</svg>