<?xml version="1.0" encoding="UTF-8"?>
<svg xmlns="http://www.w3.org/2000/svg" height="70px" width="70px">
 <g>
  <circle cy="35" cx="35" style="fill:#4285f4;fill-opacity:1;stroke:none;" r="35"/>
  <path style="opacity:0.25;fill:#000000;" d="M 29.7,8.7 27,9 8,25 35,67 65,44"/>
  <path d="M 70,35 C 70,15.7 54.3,0 35,0 41,1.8 45,3 49,6 47.7,5.53 46.4,5.18 45,5 49.2,7.33 52.9,10.2 55.8,13.8 55.3,13.5 55.6,13.8 55.8,14.1 54.1,12.9 52.4,11.7 51,11.7 53.9,14.1 58.5,19.7 57.9,29.9 57,28.1 56.2,26.9 55.3,26.1 56.4,36.3 55.3,38.4 54.7,41 54.7,39.8 54.1,39 53.9,38.4 53.9,38.4 53.9,41.5 51.8,45.9 50.3,49.5 48.7,50.3 48,50.3 47.4,50.3 47.7,49.7 47.7,49.2 47.7,49.2 46.6,49.7 45.7,50.9 44.8,52 43.9,53.3 43.3,52.7 43.7,52.4 43.9,51.7 44.3,51.6 43.9,51.7 42.8,52.7 40.8,53 39.9,53 36,53.9 31.2,51.3 32,51.3 32.9,50.9 33.7,51.6 32.9,50.6 30.8,50.6 29.4,50.3 27.9,49.2 26.2,47.5 25.4,46.2 29.1,47.2 33.5,46.5 35.8,44.8 38.1,43.1 39.6,41.8 41,42.1 42.2,42.5 43.1,41 42.2,39.8 41.4,38.7 38.7,36.9 35.5,37.7 33.1,38.4 30.2,41 25.8,38.4 22.1,36 22.1,34.3 22.1,33 22.1,32.2 22.7,31 23.5,30.7 24.1,31 24.4,31 24.4,31 24.4,31 24.1,30.7 24.1,30.5 V 30.5 C 24.4,30.5 25.4,31 25.8,31 26.4,31.3 26.8,31.6 26.8,31.6 V 31.3 C 26.8,31.3 26.4,30.7 25.8,30.5 V 30.5 C 26.2,30.5 26.4,30.7 27.1,31 27.1,30.5 27.3,29.9 27.3,28.9 27.3,28.5 27.3,28.1 27.1,27.8 26.8,27.5 27.1,27.5 27.3,27.8 27.3,27.5 27.3,27.5 27.1,27.2 V 27.2 26.9 C 27.7,26.1 32.3,23.4 32.6,23.1 33.1,22.8 33.5,22.2 33.7,21.7 34.3,21.4 34.6,20.1 34.6,19.3 34.6,19 34.1,18.4 33.5,18.4 33.1,18.4 32.3,18.1 31.7,18.4 V 18.4 H 28.3 C 26.8,18.4 25.8,17.6 25.4,16.7 25.4,16.4 25,16.4 25,16 25,15.9 24.7,15.5 24.7,15.5 25.4,13.2 26.8,11.1 28.8,9.37 H 28.5 C 28.5,9.37 29.4,8.77 29.7,8.77 30,8.77 28.8,8.49 27.9,8.49 26.4,9.07 26.2,9.07 25.6,9.37 25.8,9.07 26.4,8.77 26.2,8.77 25.4,9.07 24.1,9.95 22.9,10.5 V 10.3 C 22.4,10.5 21.2,11.4 21,12.3 V 12 C 20.6,12 20.4,12.6 20,12.9 V 12.9 C 16.9,12 14.3,12.3 11.9,12.9 11.4,12.6 10.2,11.4 9.34,9.95 9.34,9.95 9.34,10.3 8.98,10.3 8.74,9.07 8.13,7.61 8.13,6.45 V 6.15 C 8.13,6.15 7.89,6.45 7.28,7.03 7.04,7.61 6.67,7.91 6.67,8.49 6.67,8.77 6.43,9.07 6.43,9.07 V 8.49 C 6.43,8.77 6.07,9.07 5.82,9.37 5.82,9.95 5.82,10.3 5.58,10.5 V 10.5 10.3 C 5.22,10.8 4.97,11.7 4.97,12.6 4.61,13.5 4.61,14.1 4.61,14.9 L 4.6,17.7 C 1.8,22.4 0,28.7 0,35 0,54.3 15.7,70 35,70 54.3,70 70,54.3 70,35 Z" style="fill:#f95f27"/>
 </g>
</svg>