<?xml version="1.0" encoding="UTF-8"?>
<svg xmlns="http://www.w3.org/2000/svg" width="64" height="64">
  <g>
    <circle style="fill:#37a0f2" cx="32" cy="32" r="32"/>
    <path style="opacity:0.2;fill:#000000" d="M 29,0.2 A 32,32 0 0 0 17.3,3.55 C 17.7,4.06 17.3,4.66 16.8,5.1 16.3,5.47 16.1,6.09 16.1,6.33 16.1,7.33 17,8.79 17.7,9.03 18.5,9.28 18.2,10.3 17.1,10.8 16.4,11.2 15.9,11.8 15.6,12.6 15.2,13.1 14.9,13.8 14.7,13.9 14.3,14 14.2,14.5 14.2,15 14.2,15.6 14.6,16 15.6,16.2 16.2,16.4 17.1,16.6 17.4,16.6 19.3,16.4 19.4,17.5 17.9,19.8 17,21 16.4,21.2 15.9,21.1 15.3,21 15,21.1 14.8,21.7 14.6,22.2 14,22.6 12.9,22.7 11.7,22.7 11.1,22.9 10.7,23.5 10.5,24 9.96,24.3 9.72,24.3 9.48,24.3 8.86,24.7 8.5,25.1 7.5,25.8 7.14,25.9 6.76,25.4 6.4,24.7 5.42,25.1 4.06,26.4 2.84,27.5 2.68,27.9 2.87,28.9 3.2,30.8 4.18,32.3 5.3,33 6.28,33.4 6.28,33.4 5.66,34 5.42,34.4 4.79,34.8 4.41,35 3.33,35.3 3.94,35.7 5.9,36 7.88,36.2 8.5,36.8 7.5,37.8 7.02,38.4 7.02,38.5 7.88,39.1 9.48,40 10.8,39.4 9.24,38.4 8.24,37.7 8.98,37.4 10.5,37.9 11.6,38.3 11.8,38.3 12.5,37.7 13.8,36.5 15.3,38.3 14,39.6 13.2,40.5 13.6,41.5 14.6,41.6 15,41.7 16,42 16.8,42.6 17.3,43 18.2,43.5 18.4,43.5 18.5,43.5 19.3,43.8 19.9,44.6 21.1,45.8 21.6,45.9 22.1,45 22.4,43.9 22.3,43.5 21.2,42.4 20.3,41.4 19,38.9 19,38.3 19,37.9 20.3,38.3 21.2,38.8 21.6,39.2 22.4,39.5 22.8,39.7 23.4,40 24.1,40.6 24.2,41.4 24.6,42.5 24.7,42.6 26,42.6 H 27.5 L 27.7,45.2 C 27.9,48.1 28.1,48.7 29.2,49.1 30,49.2 30.9,50.5 30.9,51.5 30.9,51.7 30.3,52.2 29.7,52.8 28.8,53.4 28.5,54 28.5,54.5 28.6,55.1 28.5,55.2 27.5,55.2 26.8,55.1 25.8,55.3 25.3,55.6 24.4,56 23.5,56.1 22.7,56 21.7,55.9 21.5,55.9 21.5,56.2 21.5,56.4 21.2,57.1 20.7,57.4 19.9,58.3 20.2,58.8 21.6,58.4 22.6,58.3 23.1,58.4 23.2,58.8 23.5,59.6 22.6,60.9 21.7,60.6 21.3,60.5 21.1,60.6 21,61.2 21,61.4 20.7,61.7 20.6,61.9 A 32,32 0 0 0 25.7,63.3 C 25.6,63 25.4,62.6 25.3,62.5 24.4,62 24.9,60.5 26,60.2 27.3,60 27,59.2 25.7,59 24.6,58.9 23.5,57.8 23.8,57.3 24.2,56.7 25.3,56.8 27.4,57.4 28.4,57.7 28.9,57.2 31.1,54.7 32.4,53.2 33.4,52.7 34.5,52.7 35,52.7 36.4,52.2 37.7,51.8 40.5,50.9 41.5,50.9 41.5,51.9 41.3,53.9 42.5,53.9 44.6,51.8 45.6,50.8 46.2,50.2 46.5,50.4 46.8,50.7 46,52.7 45.1,53.4 44.1,54.3 44,55 45,55.3 45.6,55.7 45.8,56.2 45.9,57.5 L 46,59.1 H 47.2 C 47.8,59.1 48.1,59.2 48.4,59.4 A 32,32 0 0 0 64,33.1 C 63.6,32 63.6,31.3 64,30.5 A 32,32 0 0 0 63.9,28.8 C 63.6,28.8 63.2,28.8 62.9,28.8 61.2,28.9 59.9,28.2 59.9,27.4 59.9,27.3 59.4,26.6 58.7,25.8 57.8,25.1 57.5,24.3 57.6,24 57.7,23.8 57.5,23.1 56.9,22.9 56.6,22.6 56.3,21.9 56.3,21.6 56.3,21 55.9,21 53.5,21 L 50.8,21.1 V 23.9 C 50.9,28.8 51.5,30 53.7,29.1 54.7,28.8 57.4,29 57.9,29.6 58.3,29.9 58.6,30.5 58.8,31.3 59,32 59.8,33.2 60.5,34 61.9,35.5 62,36.2 61.1,38.1 60.5,39.6 59.7,39.4 59.8,37.7 L 59.9,36.3 58.8,36.6 C 58,36.7 57.3,37.2 56.8,37.7 56.4,38.4 56.2,38.5 55.7,38.2 55.4,37.9 55.3,37.4 55.3,37.2 55.3,36.8 54.8,36.5 54.4,36.3 54.1,36.2 53.4,35.5 53.2,34.8 52.6,33.9 52.7,33.5 53.3,32.3 53.7,31.1 53.7,30.9 53.3,30.3 53,30 52.6,30 52.1,30.2 51.4,30.5 51.2,30.5 50.4,30.1 50,29.9 49.2,29.6 48.7,29.6 47.7,29.6 47.2,29 47.2,27.3 47.2,25.7 46.2,25.1 44,25.3 42.5,25.4 42,25.3 40.7,24.3 39.9,23.8 38.7,22.3 38.1,21.1 37.3,19.9 36.5,18.6 36.3,18.4 36,17.8 36.1,17.4 36.6,16.2 L 37.5,14.7 35.6,14.9 C 32.7,15.4 32,15.7 33.3,16.3 33.9,16.5 33.9,16.6 33.4,17.1 33.2,17.4 33.1,17.8 33.2,18.3 33.3,18.5 33.2,19.2 32.9,19.8 32.7,20.3 32.3,21 32.3,21.5 32.3,22.7 30.2,23.6 28,23.5 24.6,23.2 24.3,23.3 23.1,24.4 21.5,25.8 21.3,26.6 22.1,27.8 22.7,29.1 24.1,29.6 26,29.5 27.9,29.3 28.1,29.6 27.8,30.9 27.5,32 26.3,32.3 25.4,31.9 24.6,31.1 22.4,31.5 21.7,32.3 21.4,32.5 21.1,33.4 20.7,34.2 20.4,35.3 20.3,35.4 18.4,35.5 16.8,35.7 16.4,35.6 15.2,34.5 13.8,33.2 13.6,32.2 14.2,30.4 14.6,29.6 14.8,29.5 15.7,29.6 17.2,30 17.9,29.3 17.9,27.7 17.9,26.8 17.8,26.1 17.4,25.9 17.3,25.8 17.1,25.3 17.1,25 17.1,24.4 17,24 16.8,23.8 16.3,23.3 16.3,23.2 17,22.8 17.3,22.6 18,22.2 18.4,22.3 18.9,22.3 20,22.2 21,22 22.3,21.7 22.6,21.2 22.8,20.6 23.2,19.2 24.1,18 24.7,18 25.8,18 25.9,15.6 24.8,11.7 24.6,11.1 24.3,10.7 23.4,10.6 22.7,10.3 22.1,9.91 22,9.52 21.6,9.16 21.3,8.79 21.1,8.79 20.7,8.79 20.2,8.55 19.9,8.06 19.5,7.69 18.8,7.45 18.2,7.45 16.9,7.45 16.9,6.47 18.1,5.97 19.5,5.47 21.7,6.09 22.3,7.33 23.1,8.79 23.8,8.17 24.2,5.84 24.4,3.02 25.4,2.21 28.5,2.21 H 30.7 L 29.8,1.25 C 29.5,0.937 29.1,0.569 29,0.2 Z M 40.5,1.21 C 40.5,1.28 40.4,1.32 40.4,1.37 39.6,2.13 39.3,2.24 38.1,2.05 36.1,1.77 36.3,2.57 38.5,3.53 39.7,4.06 40.5,4.67 40.7,5.23 42,8.17 42.9,9.79 43.4,9.91 44.4,10.3 44.8,9.64 44.9,7.94 45.1,6.09 45.9,5.59 47,6.71 47.6,7.07 48.1,7.45 48.3,7.45 49.3,7.45 50.1,7.82 50.1,8.29 50.1,8.67 50.4,9.28 50.9,9.91 51.4,10.7 52,11 53.1,11 54.4,11 55.3,11.2 56.9,12.2 57.2,12.2 57.2,12.2 57.2,12.2 A 32,32 0 0 0 40.5,1.21 Z M 0.012,31.9 A 32,32 0 0 0 0,32 32,32 0 0 0 0.628,38.1 C 1.79,38.5 2.11,38.4 2.23,37.3 2.28,36.7 2.58,36.1 2.88,35.8 3.33,35.6 3.24,35.4 2.32,34.7 1.71,34.4 1.1,33.6 0.984,33.2 0.862,32.6 0.468,32.2 0,31.9 Z M 10.1,42.4 C 9.84,42.4 9.48,42.5 8.98,42.9 8.12,43.7 8.24,45.4 9.24,46.1 10.3,46.9 10.8,46.6 11,45.2 11,43.5 10.7,42.5 10.1,42.4 Z M 15.6,47.3 C 15.1,47.3 14.9,47.5 14.6,47.9 14,48.4 14,49.1 14.1,50.1 14.2,51.3 14.2,51.6 13.6,51.9 12.7,52.5 12.6,53.7 13.2,54.3 13.9,55 14.7,54.8 14.8,53.9 15.1,52.7 17,52.5 18.3,53.7 18.9,54.1 19.3,54.3 19.3,54.1 19.3,54 18.8,53.2 18.1,52.7 17,51.7 16.8,51.1 16.8,49.9 16.8,48.1 16.2,47.3 15.6,47.3 Z M 6.64,51.1 A 32,32 0 0 0 7.38,52.1 C 7.14,51.8 6.9,51.6 6.64,51.3 Z M 17.3,56.2 C 17.2,56.2 17.1,56.4 17.1,56.8 17.1,57.2 17,57.7 16.7,57.7 16.2,57.9 16.1,58.3 16.3,59.4 16.3,59.5 16.3,59.6 16.3,59.9 A 32,32 0 0 0 17.8,60.5 C 17.8,60 17.8,59.2 18.1,58.5 18.5,57.1 18.5,56.7 18.2,56.4 17.9,56.2 17.7,56.1 17.3,56.2 Z"/>
    <path style="opacity:0.2;fill:#000000" d="M 64,32 C 63.4,48.5 49,62.7 32,62.7 14.9,62.7 1,49 0.05,32.4 0.028,32.7 0.011,33.1 0,33.4 0,49 14.3,64 32,64 49.7,64 64,49 64,33.4 Z"/>
    <path style="opacity:0.2;fill:#ffffff" d="M 32,0 A 32,31.8 0 0 0 0.05,30.8 32,31.8 0 0 1 0.024,29.9 32,31.8 0 0 0 0,30.5 32,31.8 0 0 0 0.05,32 32,31.8 0 0 1 32,1.22 32,31.8 0 0 1 64,31.6 32,31.8 0 0 0 64,30.5 32,31.8 0 0 0 64,30 32,31.8 0 0 1 64,30.4 32,31.8 0 0 0 32,0 Z"/>
  </g>
</svg>
