<?xml version="1.0" encoding="UTF-8"?>
<svg xmlns="http://www.w3.org/2000/svg" width="64" height="64">
  <g>
    <path style="opacity:0.2" d="M 58,32 A 26,25.8 0 0 1 32,57 26,25.8 0 0 1 6.04,32.3 26,25.8 0 0 0 6,33.2 26,25.8 0 0 0 32,59 26,25.8 0 0 0 58,33.2 26,25.8 0 0 0 58,32 Z"/>
    <circle style="fill:#37a0f2" cx="32" cy="32" r="26"/>
    <path style="opacity:0.2" d="M 29.6,6.1 A 26,26 0 0 0 20.1,8.83 C 20.3,9.24 20.1,9.72 19.6,10.1 19.3,10.4 19.1,10.9 19.1,11.1 19.1,11.9 19.8,13.1 20.3,13.3 21.1,13.5 20.8,14.3 19.9,14.7 19.4,15 18.9,15.5 18.6,16.1 18.4,16.6 18.1,17.1 17.9,17.2 17.7,17.3 17.6,17.7 17.6,18.1 17.6,18.6 17.8,18.9 18.6,19.2 19.2,19.4 19.9,19.6 20.2,19.6 21.7,19.4 21.8,20.3 20.5,22.1 19.8,23.1 19.4,23.3 18.9,23.2 18.5,23.1 18.2,23.2 18,23.6 17.8,24.1 17.4,24.3 16.5,24.4 15.5,24.4 15.1,24.6 14.7,25.1 14.5,25.5 14.1,25.8 13.9,25.8 13.7,25.8 13.2,26.1 12.9,26.4 12.1,27 11.8,27.1 11.5,26.7 11.2,26.1 10.4,26.4 9.3,27.5 8.3,28.4 8.18,28.7 8.33,29.5 8.6,31 9.4,32.2 10.3,32.7 11.1,33.1 11.1,33.1 10.6,33.6 10.4,33.9 9.89,34.3 9.59,34.4 8.71,34.6 9.2,35 10.8,35.2 12.4,35.4 12.9,35.9 12.1,36.7 11.7,37.2 11.7,37.3 12.4,37.7 13.7,38.5 14.8,38 13.5,37.2 12.7,36.6 13.3,36.4 14.5,36.8 15.4,37.1 15.6,37.1 16.1,36.6 17.2,35.6 18.5,37.1 17.4,38.2 16.8,38.9 17,39.7 17.8,39.8 18.2,39.9 19,40.2 19.6,40.6 20.1,41 20.8,41.3 21,41.3 21.1,41.3 21.7,41.6 22.1,42.1 23.1,43.1 23.6,43.2 23.9,42.5 24.2,41.7 24.1,41.3 23.2,40.4 22.5,39.6 21.4,37.6 21.4,37.1 21.4,36.8 22.5,37.1 23.2,37.5 23.6,37.8 24.2,38.1 24.6,38.3 25,38.5 25.5,39 25.6,39.6 26,40.5 26.1,40.6 27.2,40.6 H 28.3 L 28.5,42.7 C 28.7,45.2 28.9,45.7 29.8,46 30.4,46.1 31.1,47.1 31.1,47.9 31.1,48.1 30.7,48.6 30.1,49 29.4,49.5 29.1,50 29.1,50.4 29.2,50.9 29.1,51 28.3,51 27.8,50.9 27,51.1 26.5,51.3 25.8,51.6 25.1,51.7 24.5,51.6 23.7,51.5 23.5,51.5 23.5,51.8 23.5,52 23.2,52.4 22.9,52.7 22.1,53.4 22.4,53.8 23.6,53.5 24.4,53.4 24.7,53.5 24.8,53.8 25.1,54.5 24.4,55.5 23.7,55.3 23.3,55.2 23.1,55.3 23,55.8 23,56 22.9,56.2 22.8,56.3 A 26,26 0 0 0 26.9,57.5 C 26.8,57.2 26.6,57 26.5,56.9 25.8,56.4 26.3,55.2 27.2,55 28.1,54.8 28,54.2 26.9,54 26,53.9 25.1,53 25.4,52.6 25.6,52.2 26.5,52.3 28.2,52.7 29,52.9 29.5,52.5 31.3,50.5 32.4,49.4 33.2,48.9 34.1,48.9 34.4,48.9 35.6,48.6 36.7,48.2 38.9,47.5 39.7,47.5 39.7,48.3 39.5,49.9 40.5,49.9 42.2,48.2 43,47.4 43.6,46.9 43.7,47 44,47.3 43.4,48.9 42.7,49.5 41.9,50.3 41.8,50.8 42.6,51.1 43,51.4 43.2,51.8 43.3,52.8 L 43.4,54.1 H 44.4 C 44.8,54.1 45.1,54.2 45.4,54.3 A 26,26 0 0 0 58,32.8 C 57.6,31.9 57.6,31.5 58,30.9 A 26,26 0 0 0 57.9,29.4 C 57.6,29.4 57.4,29.4 57.1,29.4 55.8,29.5 54.7,29 54.7,28.3 54.7,28.2 54.2,27.6 53.7,27 53,26.4 52.7,25.8 52.8,25.5 52.9,25.3 52.7,24.8 52.3,24.6 52,24.3 51.7,23.8 51.7,23.5 51.7,23.1 51.5,23.1 49.5,23.1 L 47.2,23.2 V 25.4 C 47.3,29.4 47.9,30.4 49.7,29.7 50.5,29.4 52.6,29.6 53.1,30.1 53.3,30.3 53.6,30.9 53.8,31.5 54,31.9 54.6,32.9 55.1,33.6 56.3,34.8 56.4,35.4 55.7,36.9 55.1,38.2 54.5,38 54.6,36.6 L 54.7,35.5 53.8,35.7 C 53.2,35.8 52.5,36.2 52.2,36.6 51.8,37.2 51.6,37.3 51.3,37 51,36.8 50.9,36.4 50.9,36.2 50.9,35.9 50.6,35.6 50.2,35.5 49.9,35.4 49.4,34.8 49.2,34.3 48.8,33.5 48.9,33.2 49.3,32.2 49.7,31.3 49.7,31.1 49.3,30.7 49,30.4 48.8,30.4 48.3,30.6 47.8,30.9 47.6,30.9 47,30.5 46.6,30.3 46,30.1 45.5,30.1 44.7,30.1 44.4,29.6 44.4,28.2 44.4,26.9 43.6,26.4 41.8,26.6 40.5,26.7 40.2,26.6 39.1,25.8 38.5,25.3 37.5,24.2 36.9,23.2 36.3,22.2 35.7,21.2 35.5,21 35.2,20.6 35.3,20.2 35.8,19.2 L 36.5,17.8 35,18 C 32.5,18.4 32,18.7 33.1,19.3 33.5,19.5 33.5,19.6 33.2,20 33,20.2 32.9,20.6 33,20.9 33.1,21.1 33,21.6 32.7,22.1 32.5,22.5 32.3,23.1 32.3,23.4 32.3,24.4 30.6,25.2 28.8,25.1 26,24.9 25.7,25 24.7,25.9 23.5,27 23.3,27.6 23.9,28.6 24.5,29.7 25.5,30.1 27.2,30 28.7,29.9 28.9,30.1 28.6,31.1 28.3,31.9 27.3,32.2 26.6,31.8 26,31.3 24.2,31.7 23.7,32.2 23.4,32.4 23.1,33.1 22.9,33.7 22.6,34.6 22.5,34.7 21,34.8 19.6,35 19.4,34.9 18.4,34 17.2,32.9 17,32.1 17.6,30.8 17.8,30.1 18,30 18.7,30.1 20,30.4 20.5,29.9 20.5,28.5 20.5,27.8 20.4,27.2 20.2,27.1 20.1,27 19.9,26.6 19.9,26.3 19.9,25.9 19.8,25.5 19.6,25.3 19.3,25 19.3,24.9 19.8,24.5 20.1,24.3 20.6,24.1 21,24.2 21.3,24.2 22.2,24.1 23,23.9 24.1,23.6 24.4,23.3 24.6,22.7 24.8,21.6 25.5,20.7 26.1,20.7 27,20.7 27.1,18.6 26.2,15.4 26,14.9 25.7,14.6 25,14.5 24.5,14.3 23.9,14 23.8,13.7 23.6,13.4 23.3,13.1 23.1,13.1 22.9,13.1 22.4,12.9 22.1,12.5 21.9,12.2 21.2,12 20.8,12 19.7,12 19.7,11.2 20.7,10.8 21.9,10.4 23.7,10.9 24.1,11.9 24.7,13.1 25.4,12.6 25.6,10.7 25.8,8.4 26.6,7.74 29.1,7.74 H 30.9 L 30.2,6.95 C 29.9,6.7 29.7,6.4 29.6,6.1 Z M 38.9,6.92 C 38.9,6.97 38.8,7 38.8,7.05 38.2,7.67 37.9,7.76 36.9,7.62 35.3,7.37 35.5,8.03 37.3,8.81 38.3,9.24 38.9,9.73 39.1,10.2 40.2,12.6 40.9,13.9 41.2,14 42,14.3 42.4,13.8 42.5,12.4 42.7,10.9 43.3,10.5 44.2,11.4 44.6,11.7 45.1,12 45.3,12 46.1,12 46.7,12.3 46.7,12.7 46.7,13 47,13.5 47.3,14 47.8,14.6 48.2,14.8 49.1,14.8 50.2,14.8 50.9,15 52.3,15.8 52.4,15.8 52.4,15.8 52.4,15.8 A 26,26 0 0 0 38.9,6.92 Z M 6.01,31.8 A 26,26 0 0 0 6,31.9 26,26 0 0 0 6.51,36.9 C 7.45,37.3 7.71,37.2 7.81,36.3 7.86,35.8 8.1,35.3 8.34,35.1 8.71,34.9 8.64,34.7 7.88,34.2 7.39,33.9 6.9,33.3 6.8,32.9 6.7,32.5 6.38,32.1 6,31.8 Z M 14.2,40.4 C 14,40.4 13.7,40.5 13.3,40.9 12.6,41.5 12.7,42.8 13.5,43.4 14.4,44 14.8,43.8 14.9,42.7 15,41.3 14.7,40.5 14.2,40.4 Z M 18.6,44.4 C 18.3,44.4 18.1,44.6 17.8,45 17.4,45.4 17.4,46 17.5,46.8 17.6,47.8 17.6,48 17,48.3 16.3,48.7 16.2,49.7 16.8,50.3 17.3,50.8 17.9,50.6 18,49.9 18.3,48.9 19.8,48.7 20.9,49.7 21.3,50.1 21.7,50.3 21.7,50.1 21.7,50 21.2,49.4 20.7,48.9 19.8,48.1 19.6,47.7 19.6,46.7 19.6,45.2 19.2,44.4 18.6,44.4 Z M 11.4,47.7 A 26,26 0 0 0 12,48.5 C 11.8,48.2 11.6,48 11.4,47.8 Z M 20.1,51.8 C 20,51.8 19.9,52 19.9,52.3 19.9,52.5 19.8,52.9 19.5,52.9 19.2,53.1 19.1,53.4 19.3,54.3 19.3,54.4 19.3,54.5 19.3,54.7 A 26,26 0 0 0 20.4,55.2 C 20.4,54.8 20.4,54.2 20.7,53.6 21.1,52.4 21.1,52.2 20.8,52 20.5,51.8 20.3,51.7 20.1,51.8 Z"/>
    <path style="opacity:0.2;fill:#ffffff" d="M 32,6 A 26,25.8 0 0 0 6.04,31 26,25.8 0 0 1 6.02,30.3 26,25.8 0 0 0 6,30.8 26,25.8 0 0 0 6.04,32 26,25.8 0 0 1 32,6.99 26,25.8 0 0 1 58,31.7 26,25.8 0 0 0 58,30.8 26,25.8 0 0 0 58,30.4 26,25.8 0 0 1 58,30.7 26,25.8 0 0 0 32,6 Z"/>
  </g>
</svg>
